<svg id="visual" viewBox="0 0 900 600" width="900" height="600" xmlns="http://www.w3.org/2000/svg" xmlns:xlink="http://www.w3.org/1999/xlink" version="1.1"><rect x="0" y="0" width="900" height="600" fill="#340b3a"></rect><g transform="translate(446.2753936392075 290.2532496438664)"><path d="M210.2 -220C265.7 -203.9 299.3 -131.3 280.9 -73.5C262.5 -15.7 192.2 27.3 148.4 69.2C104.6 111.1 87.3 151.9 50.7 185.1C14 218.3 -42.1 244 -107.9 243.2C-173.7 242.3 -249.2 214.9 -271.1 163.2C-293 111.5 -261.2 35.5 -242.7 -38.1C-224.1 -111.7 -218.8 -183 -180.5 -202.1C-142.3 -221.2 -71.1 -188.1 3.1 -191.8C77.3 -195.5 154.7 -236 210.2 -220" fill="#4a215f"></path></g></svg>