<svg id="visual" viewBox="0 0 900 600" width="900" height="600" xmlns="http://www.w3.org/2000/svg" xmlns:xlink="http://www.w3.org/1999/xlink" version="1.1"><rect x="0" y="0" width="900" height="600" fill="#001220"></rect><defs><linearGradient id="grad1_0" x1="33.3%" y1="0%" x2="100%" y2="100%"><stop offset="20%" stop-color="#001220" stop-opacity="1"></stop><stop offset="80%" stop-color="#001220" stop-opacity="1"></stop></linearGradient></defs><defs><linearGradient id="grad2_0" x1="0%" y1="0%" x2="66.7%" y2="100%"><stop offset="20%" stop-color="#001220" stop-opacity="1"></stop><stop offset="80%" stop-color="#001220" stop-opacity="1"></stop></linearGradient></defs><g transform="translate(900, 0)"><path d="M0 324.5C-19.9 299.7 -39.9 274.9 -74.3 277.2C-108.7 279.5 -157.5 308.9 -162.2 281C-167 253.1 -127.5 167.9 -141.4 141.4C-155.3 115 -222.6 147.3 -249.4 144C-276.3 140.7 -262.7 101.9 -268.5 72C-274.3 42 -299.4 21 -324.5 0L0 0Z" fill="#FBAE3C"></path></g><g transform="translate(0, 600)"><path d="M0 -324.5C17.2 -284.6 34.5 -244.7 66 -246.3C97.5 -247.9 143.3 -291.1 162.2 -281C181.2 -270.9 173.3 -207.5 169 -169C164.7 -130.5 163.9 -116.7 185.3 -107C206.7 -97.3 250.3 -91.5 277.2 -74.3C304.1 -57.1 314.3 -28.6 324.5 0L0 0Z" fill="#FBAE3C"></path></g></svg>