<svg id="visual" viewBox="0 0 900 600" width="900" height="600" xmlns="http://www.w3.org/2000/svg" xmlns:xlink="http://www.w3.org/1999/xlink" version="1.1"><rect x="0" y="0" width="900" height="600" fill="#002233"></rect><path d="M0 487L21.5 474.3C43 461.7 86 436.3 128.8 433.3C171.7 430.3 214.3 449.7 257.2 445.5C300 441.3 343 413.7 385.8 408.8C428.7 404 471.3 422 514.2 438C557 454 600 468 642.8 461.3C685.7 454.7 728.3 427.3 771.2 414.2C814 401 857 402 878.5 402.5L900 403L900 601L878.5 601C857 601 814 601 771.2 601C728.3 601 685.7 601 642.8 601C600 601 557 601 514.2 601C471.3 601 428.7 601 385.8 601C343 601 300 601 257.2 601C214.3 601 171.7 601 128.8 601C86 601 43 601 21.5 601L0 601Z" fill="#0066FF" stroke-linecap="round" stroke-linejoin="miter"></path></svg>